HIERARCHY
ROOT joint_Root
{
	OFFSET 0.0 0.0 0.0
	CHANNELS 6 Xposition Yposition Zposition Zrotation Xrotation Yrotation 
	JOINT Hips
	{
		OFFSET -17.1583 93.1646 452.98
		CHANNELS 6 Xposition Yposition Zposition Zrotation Xrotation Yrotation 
		JOINT Spine
		{
			OFFSET 15.7357 0.0 0.0
			CHANNELS 6 Xposition Yposition Zposition Zrotation Xrotation Yrotation 
			JOINT Chest
			{
				OFFSET 8.98455 -0.406207 0.0
				CHANNELS 6 Xposition Yposition Zposition Zrotation Xrotation Yrotation 
				JOINT Neck
				{
					OFFSET 16.3773 0.0 0.0
					CHANNELS 6 Xposition Yposition Zposition Zrotation Xrotation Yrotation 
					JOINT Head
					{
						OFFSET 6.45672 0.0 0.0
						CHANNELS 6 Xposition Yposition Zposition Zrotation Xrotation Yrotation 
						End Site
						{
							OFFSET 0.0 0.0 0.0
						}
					}
				}
				JOINT Shoulder_L
				{
					OFFSET 12.9942 -0.242716 4.98039
					CHANNELS 6 Xposition Yposition Zposition Zrotation Xrotation Yrotation 
					JOINT UpperArm_L
					{
						OFFSET 5.34809 0.0 0.0
						CHANNELS 6 Xposition Yposition Zposition Zrotation Xrotation Yrotation 
						JOINT LowerArm_L
						{
							OFFSET 24.3286 1.87007e-05 0.0
							CHANNELS 6 Xposition Yposition Zposition Zrotation Xrotation Yrotation 
							JOINT Hand_L
							{
								OFFSET 22.2916 0.0 0.0
								CHANNELS 6 Xposition Yposition Zposition Zrotation Xrotation Yrotation 
								End Site
								{
									OFFSET 0.0 0.0 0.0
								}
							}
						}
					}
				}
				JOINT Shoulder_R
				{
					OFFSET 12.9945 -0.242716 -4.98039
					CHANNELS 6 Xposition Yposition Zposition Zrotation Xrotation Yrotation 
					JOINT UpperArm_R
					{
						OFFSET -5.34813 0.0 0.0
						CHANNELS 6 Xposition Yposition Zposition Zrotation Xrotation Yrotation 
						JOINT LowerArm_R
						{
							OFFSET -24.3289 0.000322201 0.0
							CHANNELS 6 Xposition Yposition Zposition Zrotation Xrotation Yrotation 
							JOINT Hand_R
							{
								OFFSET -22.2915 -0.000108084 0.0
								CHANNELS 6 Xposition Yposition Zposition Zrotation Xrotation Yrotation 
								End Site
								{
									OFFSET 0.0 0.0 0.0
								}
							}
						}
					}
				}
			}
		}
		JOINT UpperLeg_L
		{
			OFFSET -2.19248 -6.46944 0.0
			CHANNELS 6 Xposition Yposition Zposition Zrotation Xrotation Yrotation 
			JOINT LowerLeg_L
			{
				OFFSET 39.0811 0.0 -1.23785e-05
				CHANNELS 6 Xposition Yposition Zposition Zrotation Xrotation Yrotation 
				JOINT Foot_L
				{
					OFFSET 40.9854 0.0 -1.26872e-05
					CHANNELS 6 Xposition Yposition Zposition Zrotation Xrotation Yrotation 
					JOINT Toes_L
					{
						OFFSET 11.7543 0.0 0.0
						CHANNELS 6 Xposition Yposition Zposition Zrotation Xrotation Yrotation 
						End Site
						{
							OFFSET 0.0 0.0 0.0
						}
					}
				}
			}
		}
		JOINT UpperLeg_R
		{
			OFFSET -2.19251 6.46944 0.0
			CHANNELS 6 Xposition Yposition Zposition Zrotation Xrotation Yrotation 
			JOINT LowerLeg_R
			{
				OFFSET -39.0811 -0.00228153 -0.0401928
				CHANNELS 6 Xposition Yposition Zposition Zrotation Xrotation Yrotation 
				JOINT Foot_R
				{
					OFFSET -40.9854 0.0 0.0
					CHANNELS 6 Xposition Yposition Zposition Zrotation Xrotation Yrotation 
					JOINT Toes_R
					{
						OFFSET -11.7543 0.0 0.0
						CHANNELS 6 Xposition Yposition Zposition Zrotation Xrotation Yrotation 
						End Site
						{
							OFFSET 0.0 0.0 0.0
						}
					}
				}
			}
		}
	}
}
MOTION
Frames:	9
Frame Time:	0.0333333
0.000000 0.000000 0.000000 0.000000 0.000000 -0.000000 -0.910630 92.509300 -0.125501 87.429700 -0.923308 6.149180 15.735700 0.000005 -0.000001 85.954300 85.882600 -84.372400 8.984550 -0.406207 -0.000000 0.459641 -0.681621 3.164270 16.377300 -0.000001 -0.000001 9.326910 3.546950 -4.037210 6.456720 -0.000001 -0.000000 -4.895940 3.726450 -2.891330 12.994200 -0.242716 4.980390 -93.231600 9.209820 -70.568700 5.348090 -0.000007 -0.000001 -73.667600 19.460400 0.307550 24.328600 0.000019 0.000005 12.577200 25.178800 -27.672900 22.291600 -0.000001 0.000005 -6.405360 5.051110 6.212470 12.994500 -0.242716 -4.980390 87.355200 7.393530 -70.253300 -5.348130 -0.000001 -0.000004 -69.344100 31.026200 -3.539520 -24.328900 0.000322 -0.000009 2.123460 5.633000 -20.703400 -22.291500 -0.000108 -0.000004 -4.634410 5.246570 1.523060 -2.192480 -6.469440 -0.000000 -177.765000 -3.897790 1.709750 39.081100 -0.000007 -0.000012 0.242049 -0.605019 21.805300 40.985400 -0.000006 -0.000013 2.775170 4.594240 -72.068700 11.754300 -0.000000 0.000003 -0.000979 0.182732 -9.164320 -2.192510 6.469440 -0.000001 -175.875000 7.836270 -173.965000 -39.081100 -0.002282 -0.040193 0.077904 -0.272677 15.295900 -40.985400 0.000008 0.000006 1.980910 4.401170 -70.745500 -11.754300 -0.000006 -0.000006 -0.011327 0.280966 -5.155680
0.000000 0.000000 0.000000 0.000000 0.000000 -0.000000 -0.957552 92.516900 -0.179159 87.417100 -0.904506 6.124340 15.735700 0.000005 -0.000001 85.627300 85.870100 -84.035400 8.984550 -0.406207 -0.000000 0.481835 -0.730693 3.184600 16.377300 -0.000001 -0.000001 9.251620 3.542690 -3.961790 6.456720 -0.000001 -0.000000 -4.932750 3.732530 -2.875070 12.994200 -0.242716 4.980390 -93.239500 9.237220 -70.577400 5.348090 -0.000007 -0.000001 -73.789800 18.044200 0.795785 24.328600 0.000019 0.000005 13.340500 24.828200 -29.455800 22.291600 -0.000001 0.000005 -6.586210 5.055980 6.105500 12.994500 -0.242716 -4.980390 87.334900 7.416570 -70.170200 -5.348130 -0.000001 -0.000004 -69.130800 30.475800 -3.562910 -24.328900 0.000322 -0.000009 2.296910 5.885650 -21.371700 -22.291500 -0.000108 -0.000004 -5.095600 5.251310 1.398120 -2.192480 -6.469440 -0.000000 -177.731000 -3.833910 1.637110 39.081100 -0.000007 -0.000012 0.241166 -0.602428 21.817800 40.985400 -0.000006 -0.000013 2.729740 4.556140 -72.035800 11.754300 -0.000000 0.000003 -0.000752 0.179448 -9.297750 -2.192510 6.469440 -0.000001 -175.824000 7.840520 -174.004000 -39.081100 -0.002282 -0.040193 0.077240 -0.270964 15.257300 -40.985400 0.000008 0.000006 2.038970 4.415430 -70.758700 -11.754300 -0.000006 -0.000006 -0.011864 0.284744 -5.000980
0.000000 0.000000 0.000000 0.000000 0.000000 -0.000000 -1.008310 92.520300 -0.241187 87.414200 -0.931204 6.054590 15.735700 0.000005 -0.000001 85.462700 85.858800 -83.863100 8.984550 -0.406207 -0.000000 0.502975 -0.756327 3.200250 16.377300 -0.000001 -0.000001 9.235860 3.538910 -3.939940 6.456720 -0.000001 -0.000000 -5.132790 3.754450 -2.791980 12.994200 -0.242716 4.980390 -93.253400 9.243620 -70.512700 5.348090 -0.000007 -0.000001 -73.927300 16.168400 1.415420 24.328600 0.000019 0.000005 13.770900 23.225000 -31.861500 22.291600 -0.000001 0.000005 -6.456010 5.056000 6.104600 12.994500 -0.242716 -4.980390 87.307200 7.440590 -70.039300 -5.348130 -0.000001 -0.000004 -68.943600 29.167100 -3.609250 -24.328900 0.000322 -0.000009 2.409200 5.887270 -22.311700 -22.291500 -0.000108 -0.000004 -5.183930 5.245010 1.564150 -2.192480 -6.469440 -0.000000 -177.717000 -3.763120 1.496240 39.081100 -0.000007 -0.000012 0.242358 -0.603769 21.871400 40.985400 -0.000006 -0.000013 2.676880 4.476450 -72.055000 11.754300 -0.000000 0.000003 -0.000832 0.180613 -9.250430 -2.192510 6.469440 -0.000001 -175.768000 7.839740 -174.138000 -39.081100 -0.002282 -0.040193 0.076886 -0.269280 15.278200 -40.985400 0.000008 0.000006 2.020890 4.378020 -70.649700 -11.754300 -0.000006 -0.000006 -0.011269 0.280554 -5.172520
0.000000 0.000000 0.000000 0.000000 0.000000 -0.000000 -1.056430 92.528700 -0.308808 87.395900 -0.925197 6.019960 15.735700 0.000005 -0.000001 85.253800 85.833300 -83.654800 8.984550 -0.406207 -0.000000 0.551875 -0.789913 3.199430 16.377300 -0.000001 -0.000001 9.161090 3.496890 -3.845310 6.456720 -0.000001 -0.000000 -5.241370 3.753690 -2.678620 12.994200 -0.242716 4.980390 -93.240200 9.169690 -70.442200 5.348090 -0.000007 -0.000001 -74.112600 13.994500 2.200540 24.328600 0.000019 0.000005 15.287000 22.390400 -35.660700 22.291600 -0.000001 0.000005 -6.078640 5.058240 6.054830 12.994500 -0.242716 -4.980390 87.278300 7.464730 -69.901400 -5.348130 -0.000001 -0.000004 -68.813200 27.399000 -3.626740 -24.328900 0.000322 -0.000009 2.331690 5.372320 -23.513700 -22.291500 -0.000108 -0.000004 -4.641480 5.238150 1.743990 -2.192480 -6.469440 -0.000000 -177.686000 -3.666570 1.406340 39.081100 -0.000007 -0.000012 0.243696 -0.606203 21.900800 40.985400 -0.000006 -0.000013 2.625120 4.411450 -72.088000 11.754300 -0.000000 0.000003 -0.001009 0.183163 -9.146810 -2.192510 6.469440 -0.000001 -175.699000 7.814240 -174.215000 -39.081100 -0.002282 -0.040193 0.076962 -0.269865 15.261600 -40.985400 0.000008 0.000006 2.042240 4.351260 -70.652500 -11.754300 -0.000006 -0.000006 -0.011840 0.284576 -5.007830
0.000000 0.000000 0.000000 0.000000 0.000000 -0.000000 -1.106650 92.537100 -0.356676 87.393000 -0.965145 6.035400 15.735700 0.000005 -0.000001 85.505900 85.789000 -83.902900 8.984550 -0.406207 -0.000000 0.642825 -0.759297 3.207940 16.377300 -0.000001 -0.000001 9.116970 3.425910 -3.717120 6.456720 -0.000001 -0.000000 -5.484110 3.626460 -2.579540 12.994200 -0.242716 4.980390 -93.253300 9.133760 -70.298300 5.348090 -0.000007 -0.000001 -74.187600 11.884600 2.947920 24.328600 0.000019 0.000005 17.341100 21.518400 -40.406900 22.291600 -0.000001 0.000005 -5.899750 5.040340 6.449490 12.994500 -0.242716 -4.980390 87.271600 7.428060 -69.765000 -5.348130 -0.000001 -0.000004 -68.654800 25.063600 -3.526220 -24.328900 0.000322 -0.000009 2.775620 5.794360 -25.657900 -22.291500 -0.000108 -0.000004 -4.565620 5.225400 2.074210 -2.192480 -6.469440 -0.000000 -177.669000 -3.596960 1.397950 39.081100 -0.000007 -0.000012 0.242392 -0.603595 21.879900 40.985400 -0.000006 -0.000013 2.565540 4.292150 -72.016400 11.754300 -0.000000 0.000003 -0.000741 0.179281 -9.304560 -2.192510 6.469440 -0.000001 -175.644000 7.760680 -174.198000 -39.081100 -0.002282 -0.040193 0.076550 -0.269734 15.187300 -40.985400 0.000008 0.000006 2.124080 4.315350 -70.589600 -11.754300 -0.000006 -0.000006 -0.011761 0.284028 -5.030290
0.000000 0.000000 0.000000 0.000000 0.000000 -0.000000 -1.151720 92.549600 -0.444156 87.405200 -0.981720 5.895320 15.735700 0.000005 -0.000001 86.220200 85.791400 -84.638100 8.984550 -0.406207 -0.000000 0.643830 -0.652978 3.165380 16.377300 -0.000001 -0.000001 8.913960 3.316580 -3.426350 6.456720 -0.000001 -0.000000 -5.804560 3.403630 -2.307570 12.994200 -0.242716 4.980390 -93.238500 9.046350 -70.207800 5.348090 -0.000007 -0.000001 -74.160400 9.622940 3.591280 24.328600 0.000019 0.000005 20.204900 20.711200 -46.138900 22.291600 -0.000001 0.000005 -6.330330 5.021820 6.851900 12.994500 -0.242716 -4.980390 87.262100 7.407680 -69.649100 -5.348130 -0.000001 -0.000004 -68.540900 22.000600 -2.787850 -24.328900 0.000322 -0.000009 3.676090 6.405850 -29.940800 -22.291500 -0.000108 -0.000004 -4.921610 5.167710 3.516380 -2.192480 -6.469440 -0.000000 -177.677000 -3.557840 1.210140 39.081100 -0.000007 -0.000012 0.244176 -0.608243 21.873200 40.985400 -0.000006 -0.000013 2.530380 4.271700 -72.041000 11.754300 -0.000000 0.000003 -0.000958 0.182439 -9.176210 -2.192510 6.469440 -0.000001 -175.615000 7.808970 -174.393000 -39.081100 -0.002282 -0.040193 0.076209 -0.268614 15.179900 -40.985400 0.000008 0.000006 2.120800 4.388350 -70.529100 -11.754300 -0.000006 -0.000006 -0.011397 0.281466 -5.135190
0.000000 0.000000 0.000000 0.000000 0.000000 -0.000000 -1.214620 92.576300 -0.543268 87.378500 -0.809049 5.757990 15.735700 0.000005 -0.000001 86.104200 85.785100 -84.534000 8.984550 -0.406207 -0.000000 0.655510 -0.669934 3.141950 16.377300 -0.000001 -0.000001 8.574820 3.162830 -2.945200 6.456720 -0.000001 -0.000000 -6.264390 3.202220 -1.789600 12.994200 -0.242716 4.980390 -93.263600 9.066370 -70.106600 5.348090 -0.000007 -0.000001 -73.976300 7.044670 4.221840 24.328600 0.000019 0.000005 24.348800 19.869600 -53.089500 22.291600 -0.000001 0.000005 -7.171310 5.001050 7.297960 12.994500 -0.242716 -4.980390 87.303500 7.223960 -69.466800 -5.348130 -0.000001 -0.000004 -68.586800 18.251200 -1.734320 -24.328900 0.000322 -0.000009 4.712740 6.555750 -35.837400 -22.291500 -0.000108 -0.000004 -5.586720 5.108390 4.921270 -2.192480 -6.469440 -0.000000 -177.635000 -3.322240 0.990667 39.081100 -0.000007 -0.000012 0.238451 -0.595698 21.816100 40.985400 -0.000006 -0.000013 2.456020 4.204740 -71.869700 11.754300 -0.000000 0.000003 -0.000823 0.180489 -9.255450 -2.192510 6.469440 -0.000001 -175.552000 7.926170 -174.546000 -39.081100 -0.002282 -0.040193 0.070187 -0.248835 15.039100 -40.985400 0.000008 0.000006 1.910360 4.389710 -70.299800 -11.754300 -0.000006 -0.000006 -0.011341 0.281064 -5.151660
0.000000 0.000000 0.000000 0.000000 0.000000 -0.000000 -1.280910 92.607500 -0.668387 87.400700 -0.623458 5.465230 15.735700 0.000005 -0.000001 85.818600 85.836600 -84.289900 8.984550 -0.406207 -0.000000 0.549917 -0.703181 3.058500 16.377300 -0.000001 -0.000001 8.250460 2.975520 -2.348050 6.456720 -0.000001 -0.000000 -6.975180 2.903650 -0.867567 12.994200 -0.242716 4.980390 -93.237400 8.957260 -70.034300 5.348090 -0.000007 -0.000001 -73.770900 4.863660 4.784650 24.328600 0.000019 0.000005 28.977500 18.082200 -60.729100 22.291600 -0.000001 0.000005 -7.371600 4.971270 7.924120 12.994500 -0.242716 -4.980390 87.357000 7.000880 -69.256500 -5.348130 -0.000001 -0.000004 -68.757400 14.012900 -0.522186 -24.328900 0.000322 -0.000009 5.256910 5.730510 -42.668300 -22.291500 -0.000108 -0.000004 -5.772780 5.077120 5.632750 -2.192480 -6.469440 -0.000000 -177.673000 -3.087380 0.640418 39.081100 -0.000007 -0.000012 0.239752 -0.601519 21.731600 40.985400 -0.000006 -0.000013 2.397910 4.155770 -71.874700 11.754300 -0.000000 0.000003 -0.001092 0.184328 -9.099460 -2.192510 6.469440 -0.000001 -175.498000 8.078960 -174.865000 -39.081100 -0.002282 -0.040193 0.068152 -0.243542 14.904500 -40.985400 0.000008 0.000006 1.841790 4.357220 -70.193900 -11.754300 -0.000006 -0.000006 -0.011708 0.283654 -5.045610
0.000000 0.000000 0.000000 0.000000 0.000000 -0.000000 -1.353140 92.632800 -0.785703 87.361200 -0.417282 5.191460 15.735700 0.000005 -0.000001 85.225000 85.892500 -83.705000 8.984550 -0.406207 -0.000000 0.432613 -0.780856 3.040670 16.377300 -0.000001 -0.000001 7.952220 2.699620 -1.550960 6.456720 -0.000001 -0.000000 -7.695540 2.556340 0.155859 12.994200 -0.242716 4.980390 -93.179400 8.832660 -70.111700 5.348090 -0.000007 -0.000001 -73.497400 2.630560 5.229300 24.328600 0.000019 0.000005 33.014000 14.949400 -68.344700 22.291600 -0.000001 0.000005 -6.976220 4.948230 8.401590 12.994500 -0.242716 -4.980390 87.440800 6.710830 -69.069400 -5.348130 -0.000001 -0.000004 -68.812900 10.399100 0.466562 -24.328900 0.000322 -0.000009 5.612810 4.716540 -50.087000 -22.291500 -0.000108 -0.000004 -4.557170 5.064540 5.914130 -2.192480 -6.469440 -0.000000 -177.619000 -2.856000 0.243305 39.081100 -0.000007 -0.000012 0.236875 -0.594579 21.722400 40.985400 -0.000006 -0.000013 2.330740 4.132070 -71.743000 11.754300 -0.000000 0.000003 -0.000805 0.180225 -9.266200 -2.192510 6.469440 -0.000001 -175.415000 8.354250 -175.173000 -39.081100 -0.002282 -0.040193 0.063697 -0.228944 14.771300 -40.985400 0.000008 0.000006 1.725850 4.492090 -70.010900 -11.754300 -0.000006 -0.000006 -0.011419 0.281618 -5.128970
